<?xml version="1.0" standalone="no"?><!DOCTYPE svg PUBLIC "-//W3C//DTD SVG 1.1//EN" "http://www.w3.org/Graphics/SVG/1.1/DTD/svg11.dtd"><svg t="1557564701835" class="icon" style="" viewBox="0 0 1024 1024" version="1.1" xmlns="http://www.w3.org/2000/svg" p-id="22109" xmlns:xlink="http://www.w3.org/1999/xlink" width="128" height="128"><defs><style type="text/css"></style></defs><path d="M894.976 892.928V268.8h-223.232V102.912H164.352v790.016H71.168v33.792h886.784v-33.792h-62.976z m-253.44 0H197.632V136.192h443.904v756.736z m220.16 0h-189.44V300.544h189.44v592.384z m-62.976-460.8h-64v131.584H798.72V432.128z m0 197.632h-64v131.584H798.72V629.76zM387.584 268.8H260.608v65.024h126.976V268.8z m0 196.608H260.608v66.048h126.976V465.408z m0 164.352H260.608v65.024h126.976V629.76z m190.464 0H451.072v65.024h126.976V629.76z m0-164.352H451.072v66.048h126.976V465.408z m0-196.608H451.072v65.024h126.976V268.8z" fill="#666666" p-id="22110"></path></svg>