<?xml version="1.0" standalone="no"?><!DOCTYPE svg PUBLIC "-//W3C//DTD SVG 1.1//EN" "http://www.w3.org/Graphics/SVG/1.1/DTD/svg11.dtd"><svg t="1557564056395" class="icon" style="" viewBox="0 0 1024 1024" version="1.1" xmlns="http://www.w3.org/2000/svg" p-id="11364" xmlns:xlink="http://www.w3.org/1999/xlink" width="200" height="200"><defs><style type="text/css"></style></defs><path d="M768 0H256C112.64 0 0 112.64 0 256v512c0 143.36 112.64 256 256 256h512c143.36 0 256-112.64 256-256V256c0-143.36-112.64-256-256-256zM358.4 358.4c30.72 0 51.2 20.48 51.2 51.2s-20.48 51.2-51.2 51.2-51.2-20.48-51.2-51.2 20.48-51.2 51.2-51.2z m512 358.4c0 30.72-20.48 51.2-51.2 51.2s-51.2-20.48-51.2-51.2v-51.2H256v51.2c0 30.72-20.48 51.2-51.2 51.2s-51.2-20.48-51.2-51.2V307.2c0-30.72 20.48-51.2 51.2-51.2s51.2 20.48 51.2 51.2v256h563.2c30.72 0 51.2 20.48 51.2 51.2v102.4z m-409.6-204.8s25.6-153.6 102.4-153.6c209.92 0 307.2 153.6 307.2 153.6H460.8z" fill="#4B9AFC" p-id="11365"></path></svg>