<?xml version="1.0" standalone="no"?><!DOCTYPE svg PUBLIC "-//W3C//DTD SVG 1.1//EN" "http://www.w3.org/Graphics/SVG/1.1/DTD/svg11.dtd"><svg t="1557564436481" class="icon" style="" viewBox="0 0 1024 1024" version="1.1" xmlns="http://www.w3.org/2000/svg" p-id="21224" xmlns:xlink="http://www.w3.org/1999/xlink" width="128" height="128"><defs><style type="text/css"></style></defs><path d="M512 512m-512 0a512 512 0 1 0 1024 0 512 512 0 1 0-1024 0Z" fill="#F7AEAF" p-id="21225"></path><path d="M512 643.657143L138.971429 427.885714 512 215.771429l373.028571 212.114285z" fill="#FFFFFF" p-id="21226"></path><path d="M683.885714 585.142857l-142.628571 102.4c-18.285714 10.971429-40.228571 14.628571-58.514286 0L340.114286 585.142857c-21.942857-14.628571-54.857143-10.971429-69.485715 10.971429l-18.285714 29.257143c-14.628571 21.942857-10.971429 54.857143 10.971429 69.485714l223.085714 160.914286c18.285714 10.971429 40.228571 10.971429 58.514286 0L768 694.857143c21.942857-14.628571 29.257143-47.542857 10.971429-69.485714l-18.285715-29.257143c-21.942857-21.942857-54.857143-25.6-76.8-10.971429zM841.142857 427.885714h43.885714v135.314286H841.142857z" fill="#FFFFFF" p-id="21227"></path></svg>