<?xml version="1.0" standalone="no"?><!DOCTYPE svg PUBLIC "-//W3C//DTD SVG 1.1//EN" "http://www.w3.org/Graphics/SVG/1.1/DTD/svg11.dtd"><svg t="1557564757201" class="icon" style="" viewBox="0 0 1024 1024" version="1.1" xmlns="http://www.w3.org/2000/svg" p-id="22844" xmlns:xlink="http://www.w3.org/1999/xlink" width="128" height="128"><defs><style type="text/css"></style></defs><path d="M204.8 505.088m-80.896 0a80.896 80.896 0 1 0 161.792 0 80.896 80.896 0 1 0-161.792 0Z" fill="#65ACFF" p-id="22845"></path><path d="M817.28 505.088m-80.896 0a80.896 80.896 0 1 0 161.792 0 80.896 80.896 0 1 0-161.792 0Z" fill="#65ACFF" p-id="22846"></path><path d="M522.624 521.344c-95.232 0-172.672-77.44-172.672-172.672s77.44-172.672 172.672-172.672S695.296 253.44 695.296 348.672s-77.44 172.672-172.672 172.672z m0-312.832c-77.312 0-140.16 62.848-140.16 140.16s62.848 140.16 140.16 140.16 140.16-62.848 140.16-140.16-62.848-140.16-140.16-140.16zM204.928 615.296c-40.32 0-79.232-22.144-98.56-60.544-13.312-26.24-15.488-56.192-6.272-84.096 9.216-27.904 28.672-50.688 55.04-63.872 26.24-13.312 56.192-15.488 84.096-6.272 27.904 9.216 50.688 28.8 63.872 55.04 13.312 26.24 15.488 56.192 6.272 84.096-9.216 27.904-28.672 50.688-55.04 63.872-15.744 7.936-32.768 11.776-49.408 11.776z m-0.256-187.904c-12.032 0-23.936 2.816-34.944 8.32-18.56 9.344-32.256 25.344-38.784 45.056-6.528 19.712-4.864 40.704 4.48 59.264 19.328 38.272 66.048 53.632 104.32 34.304 18.56-9.344 32.256-25.344 38.784-45.056 6.528-19.712 4.864-40.704-4.48-59.264-9.344-18.56-25.344-32.256-45.056-38.784-7.936-2.432-16.128-3.84-24.32-3.84zM817.536 615.296c-40.32 0-79.232-22.144-98.56-60.544-27.392-54.272-5.504-120.576 48.768-147.968 26.24-13.312 56.192-15.488 84.096-6.272 27.904 9.216 50.688 28.8 63.872 55.04 27.392 54.272 5.504 120.576-48.768 147.968-15.872 7.936-32.768 11.776-49.408 11.776z m-0.256-187.904c-12.032 0-23.936 2.816-34.944 8.32-38.272 19.328-53.632 66.048-34.304 104.32 19.328 38.272 66.048 53.632 104.32 34.304 38.272-19.328 53.632-66.048 34.304-104.32-9.344-18.56-25.344-32.256-45.056-38.784-7.936-2.432-16.256-3.84-24.32-3.84zM786.944 895.104h-528.64c-8.448 0-15.616-6.528-16.256-14.976-0.64-8.704-1.024-17.408-1.024-25.856 0-80.896 29.184-157.184 82.048-214.528 53.248-57.728 124.032-89.472 199.552-89.472s146.304 31.744 199.552 89.472c52.864 57.344 82.048 133.504 82.048 214.528 0 8.448-0.384 17.152-1.024 25.856-0.768 8.448-7.808 14.976-16.256 14.976z m-513.152-32.512h497.664c0.128-2.816 0.128-5.504 0.128-8.32 0-149.632-111.744-271.488-248.96-271.488-137.344 0-248.96 121.728-248.96 271.488 0 2.688 0 5.504 0.128 8.32z" fill="#505050" p-id="22847"></path><path d="M982.784 816H785.152c-8.96 0-16.256-7.296-16.256-16.256s7.296-16.256 16.256-16.256h182.016c-0.256-42.624-16.256-82.944-45.184-113.792-28.032-29.824-65.408-46.976-102.784-46.976-35.968 0-70.528 14.336-97.536 40.192-6.528 6.272-16.768 6.016-23.04-0.512-6.272-6.528-6.016-16.768 0.512-23.04C732.16 607.616 774.784 590.08 819.2 590.08c97.792 0 180.48 88.96 180.48 194.432 0 5.376-0.256 10.88-0.64 16.512-0.64 8.448-7.68 14.976-16.256 14.976zM241.792 816H44.16c-8.448 0-15.616-6.528-16.256-14.976-0.384-5.504-0.64-11.136-0.64-16.512 0-105.344 82.688-194.432 180.48-194.432 44.416 0 87.04 17.536 120.064 49.28 6.528 6.272 6.656 16.512 0.512 23.04-6.272 6.528-16.512 6.656-23.04 0.512-27.008-25.856-61.568-40.192-97.536-40.192-37.248 0-74.752 17.152-102.784 46.976-28.928 30.848-44.928 71.168-45.184 113.792h182.016c8.96 0 16.256 7.296 16.256 16.256s-7.296 16.256-16.256 16.256z" fill="#505050" p-id="22848"></path></svg>