<?xml version="1.0" standalone="no"?><!DOCTYPE svg PUBLIC "-//W3C//DTD SVG 1.1//EN" "http://www.w3.org/Graphics/SVG/1.1/DTD/svg11.dtd"><svg t="1557564877134" class="icon" style="" viewBox="0 0 1024 1024" version="1.1" xmlns="http://www.w3.org/2000/svg" p-id="23605" xmlns:xlink="http://www.w3.org/1999/xlink" width="128" height="128"><defs><style type="text/css"></style></defs><path d="M488.774 555.477c-135.255 0-245.298-110.043-245.298-245.298S353.519 64.881 488.774 64.881s245.298 110.043 245.298 245.298-110.043 245.298-245.298 245.298z m0-435.947c-105.074 0-190.65 85.574-190.65 190.65s85.574 190.65 190.65 190.65c105.074 0 190.65-85.574 190.65-190.65s-85.574-190.65-190.65-190.65z" p-id="23606"></path><path d="M101.515 942.363a27.246 27.246 0 0 1-27.324-27.324c0-56.015 10.929-110.29 32.542-161.338 20.866-49.431 50.797-93.647 88.803-131.777 38.006-38.006 82.345-67.938 131.777-88.803 51.171-21.611 105.445-32.542 161.338-32.542 66.572 0 130.038 15.277 188.91 45.458 13.414 6.831 18.754 23.35 11.798 36.763s-23.35 18.754-36.763 11.798c-51.046-26.207-106.192-39.372-163.946-39.372-198.473 0-359.935 161.461-359.935 359.935 0.124 14.905-12.172 27.2-27.2 27.2z" p-id="23607"></path><path d="M790.832 663.53H582.174c-15.029 0-27.324-12.295-27.324-27.324 0-15.029 12.295-27.324 27.324-27.324h208.658c15.029 0 27.324 12.295 27.324 27.324 0 15.029-12.295 27.324-27.324 27.324zM843.866 805.741H580.559c-15.029 0-27.324-12.295-27.324-27.324 0-15.029 12.295-27.324 27.324-27.324h263.307c15.029 0 27.324 12.295 27.324 27.324 0 15.029-12.295 27.324-27.324 27.324zM925.59 949.193H582.794c-15.029 0-27.324-12.295-27.324-27.324 0-15.029 12.295-27.324 27.324-27.324H925.59c15.029 0 27.324 12.295 27.324 27.324 0 15.029-12.295 27.324-27.324 27.324z" p-id="23608"></path></svg>