<?xml version="1.0" standalone="no"?><!DOCTYPE svg PUBLIC "-//W3C//DTD SVG 1.1//EN" "http://www.w3.org/Graphics/SVG/1.1/DTD/svg11.dtd"><svg t="1557564172276" class="icon" style="" viewBox="0 0 1149 1024" version="1.1" xmlns="http://www.w3.org/2000/svg" p-id="14902" xmlns:xlink="http://www.w3.org/1999/xlink" width="224.4140625" height="200"><defs><style type="text/css"></style></defs><path d="M1099.232653 4.179592c16.718367 6.269388 29.257143 20.897959 29.257143 37.616326v167.183674c0 22.987755-18.808163 41.795918-43.885714 41.795918-25.077551 0-43.885714-18.808163-43.885715-41.795918V144.195918L771.134694 405.420408c-8.359184 8.359184-20.897959 12.538776-33.436735 12.538776-12.538776 0-25.077551-4.179592-33.436735-12.538776l-313.469387-303.020408-313.469388 303.020408c-16.718367 14.628571-43.885714 14.628571-60.604082 0-18.808163-16.718367-18.808163-43.885714-2.089796-60.604081L357.355102 12.538776c8.359184-8.359184 18.808163-12.538776 31.346939-12.538776s25.077551 4.179592 33.436735 12.538776l313.469387 300.930612L975.934694 83.591837h-64.783674c-25.077551 0-43.885714-18.808163-43.885714-41.795919s18.808163-41.795918 43.885714-41.795918h167.183674c6.269388 0 14.628571 0 20.897959 4.179592zM62.693878 689.632653c22.987755 0 41.795918 18.808163 41.795918 41.795918v250.775511c0 22.987755-18.808163 41.795918-41.795918 41.795918s-41.795918-18.808163-41.795919-41.795918V731.428571c0-22.987755 18.808163-41.795918 41.795919-41.795918z m146.285714-146.285714c22.987755 0 41.795918 14.628571 41.795918 31.346939v415.869387c0 18.808163-18.808163 31.346939-41.795918 31.346939s-41.795918-14.628571-41.795919-31.346939V574.693878c0-16.718367 18.808163-31.346939 41.795919-31.346939z m146.285714-146.285715c22.987755 0 41.795918 18.808163 41.795918 41.795919v543.346939c0 22.987755-18.808163 41.795918-41.795918 41.795918s-41.795918-18.808163-41.795918-41.795918V438.857143c0-22.987755 18.808163-41.795918 41.795918-41.795919z m438.857143 125.387756c196.440816 0 355.265306 179.722449 355.265306 240.32653C1149.387755 823.379592 990.563265 1003.102041 794.122449 1003.102041s-355.265306-160.914286-355.265306-240.326531C438.857143 702.171429 597.681633 522.44898 794.122449 522.44898z m-125.387755 250.77551c0 68.963265 56.42449 125.387755 125.387755 125.387755s125.387755-56.42449 125.387755-125.387755-56.42449-125.387755-125.387755-125.387755-125.387755 56.42449-125.387755 125.387755z" fill="#2EA4E6" p-id="14903"></path></svg>