<?xml version="1.0" standalone="no"?><!DOCTYPE svg PUBLIC "-//W3C//DTD SVG 1.1//EN" "http://www.w3.org/Graphics/SVG/1.1/DTD/svg11.dtd"><svg t="1555583948949" class="icon" style="" viewBox="0 0 1024 1024" version="1.1" xmlns="http://www.w3.org/2000/svg" p-id="8296" xmlns:xlink="http://www.w3.org/1999/xlink" width="200" height="200"><defs><style type="text/css"></style></defs><path d="M832 32H192C139.072 32 96 75.072 96 128v768c0 52.928 43.072 96 96 96h640c52.928 0 96-43.072 96-96V128c0-52.928-43.072-96-96-96zM320 96h384v96H320V96z m544 800a32 32 0 0 1-32 32H192c-17.632 0-32-14.336-32-32V128c0-17.632 14.368-32 32-32h64v96c0 35.296 28.704 64 64 64h384c35.296 0 64-28.704 64-64V96h64c17.664 0 32 14.368 32 32v768z" p-id="8297"></path><path d="M719.072 367.04l-249.376 249.376-120.256-120.288a31.968 31.968 0 1 0-45.248 45.248l142.88 142.912a32 32 0 0 0 45.248 0l272-272a31.968 31.968 0 1 0-45.248-45.248z" p-id="8298"></path></svg>